<?xml version="1.0" standalone="no"?><!DOCTYPE svg PUBLIC "-//W3C//DTD SVG 1.1//EN" "http://www.w3.org/Graphics/SVG/1.1/DTD/svg11.dtd"><svg t="1586745838898" class="icon" viewBox="0 0 1024 1024" version="1.1" xmlns="http://www.w3.org/2000/svg" p-id="1192" xmlns:xlink="http://www.w3.org/1999/xlink" width="200" height="200"><defs><style type="text/css"></style></defs><path d="M430 266m-50 0a50 50 0 1 0 100 0 50 50 0 1 0-100 0Z" fill="#222222" p-id="1193"></path><path d="M430 430m-50 0a50 50 0 1 0 100 0 50 50 0 1 0-100 0Z" fill="#222222" p-id="1194"></path><path d="M430 594m-50 0a50 50 0 1 0 100 0 50 50 0 1 0-100 0Z" fill="#222222" p-id="1195"></path><path d="M430 758m-50 0a50 50 0 1 0 100 0 50 50 0 1 0-100 0Z" fill="#222222" p-id="1196"></path><path d="M594 266m-50 0a50 50 0 1 0 100 0 50 50 0 1 0-100 0Z" fill="#222222" p-id="1197"></path><path d="M594 430m-50 0a50 50 0 1 0 100 0 50 50 0 1 0-100 0Z" fill="#222222" p-id="1198"></path><path d="M594 594m-50 0a50 50 0 1 0 100 0 50 50 0 1 0-100 0Z" fill="#222222" p-id="1199"></path><path d="M594 758m-50 0a50 50 0 1 0 100 0 50 50 0 1 0-100 0Z" fill="#222222" p-id="1200"></path></svg>