<svg xmlns="http://www.w3.org/2000/svg" xmlns:xlink="http://www.w3.org/1999/xlink" fill="none" version="1.1" width="16" height="16" viewBox="80 0 16 16"><defs><clipPath id="master_svg0_3466_085031"><rect x="80" y="0" width="16" height="16" rx="0"/></clipPath></defs><g><g clip-path="url(#master_svg0_3466_085031)"><g><path d="M83.333251953125,2.66664298828125C82.965061953125,2.66664298828125,82.666581953125,2.9651229882812498,82.666581953125,3.33331298828125C82.666581953125,3.33331298828125,82.666581953125,12.66661298828125,82.666581953125,12.66661298828125C82.666581953125,13.03481298828125,82.965061953125,13.33331298828125,83.333251953125,13.33331298828125C83.333251953125,13.33331298828125,92.666551953125,13.33331298828125,92.666551953125,13.33331298828125C93.034751953125,13.33331298828125,93.333251953125,13.03481298828125,93.333251953125,12.66661298828125C93.333251953125,12.66661298828125,93.333251953125,3.33331298828125,93.333251953125,3.33331298828125C93.333251953125,2.9651229882812498,93.034751953125,2.66664298828125,92.666551953125,2.66664298828125C92.666551953125,2.66664298828125,83.333251953125,2.66664298828125,83.333251953125,2.66664298828125C83.333251953125,2.66664298828125,83.333251953125,2.66664298828125,83.333251953125,2.66664298828125ZM81.333251953125,3.33331298828125C81.333251953125,2.22874598828125,82.228684953125,1.33331298828125,83.333251953125,1.33331298828125C83.333251953125,1.33331298828125,92.666551953125,1.33331298828125,92.666551953125,1.33331298828125C93.771151953125,1.33331298828125,94.666551953125,2.22874598828125,94.666551953125,3.33331298828125C94.666551953125,3.33331298828125,94.666551953125,12.66661298828125,94.666551953125,12.66661298828125C94.666551953125,13.77121298828125,93.771151953125,14.66661298828125,92.666551953125,14.66661298828125C92.666551953125,14.66661298828125,83.333251953125,14.66661298828125,83.333251953125,14.66661298828125C82.228684953125,14.66661298828125,81.333251953125,13.77121298828125,81.333251953125,12.66661298828125C81.333251953125,12.66661298828125,81.333251953125,3.33331298828125,81.333251953125,3.33331298828125C81.333251953125,3.33331298828125,81.333251953125,3.33331298828125,81.333251953125,3.33331298828125ZM87.999921953125,4.66664298828125C88.368121953125,4.66664298828125,88.666581953125,4.96512298828125,88.666581953125,5.33331298828125C88.666581953125,5.33331298828125,88.666581953125,7.33331298828125,88.666581953125,7.33331298828125C88.666581953125,7.33331298828125,90.666581953125,7.33331298828125,90.666581953125,7.33331298828125C91.034781953125,7.33331298828125,91.333251953125,7.63178298828125,91.333251953125,7.99998298828125C91.333251953125,8.36818298828125,91.034781953125,8.66664298828125,90.666581953125,8.66664298828125C90.666581953125,8.66664298828125,88.666581953125,8.66664298828125,88.666581953125,8.66664298828125C88.666581953125,8.66664298828125,88.666581953125,10.66664298828125,88.666581953125,10.66664298828125C88.666581953125,11.03484298828125,88.368121953125,11.33331298828125,87.999921953125,11.33331298828125C87.631721953125,11.33331298828125,87.333251953125,11.03484298828125,87.333251953125,10.66664298828125C87.333251953125,10.66664298828125,87.333251953125,8.66664298828125,87.333251953125,8.66664298828125C87.333251953125,8.66664298828125,85.333251953125,8.66664298828125,85.333251953125,8.66664298828125C84.965061953125,8.66664298828125,84.666581953125,8.36818298828125,84.666581953125,7.99998298828125C84.666581953125,7.63178298828125,84.965061953125,7.33331298828125,85.333251953125,7.33331298828125C85.333251953125,7.33331298828125,87.333251953125,7.33331298828125,87.333251953125,7.33331298828125C87.333251953125,7.33331298828125,87.333251953125,5.33331298828125,87.333251953125,5.33331298828125C87.333251953125,4.96512298828125,87.631721953125,4.66664298828125,87.999921953125,4.66664298828125C87.999921953125,4.66664298828125,87.999921953125,4.66664298828125,87.999921953125,4.66664298828125Z" fill-rule="evenodd" fill="#0256FF" fill-opacity="1"/></g></g></g></svg>