<svg xmlns="http://www.w3.org/2000/svg" xmlns:xlink="http://www.w3.org/1999/xlink" fill="none" version="1.1" width="16" height="16" viewBox="120 0 16 16"><defs><clipPath id="master_svg0_3466_085032"><rect x="120" y="0" width="16" height="16" rx="0"/></clipPath></defs><g><g clip-path="url(#master_svg0_3466_085032)"><g><path d="M123.333251953125,2.66664298828125C122.965061953125,2.66664298828125,122.666581953125,2.9651229882812498,122.666581953125,3.33331298828125C122.666581953125,3.33331298828125,122.666581953125,12.66661298828125,122.666581953125,12.66661298828125C122.666581953125,13.03481298828125,122.965061953125,13.33331298828125,123.333251953125,13.33331298828125C123.333251953125,13.33331298828125,132.666551953125,13.33331298828125,132.666551953125,13.33331298828125C133.034751953125,13.33331298828125,133.333251953125,13.03481298828125,133.333251953125,12.66661298828125C133.333251953125,12.66661298828125,133.333251953125,3.33331298828125,133.333251953125,3.33331298828125C133.333251953125,2.9651229882812498,133.034751953125,2.66664298828125,132.666551953125,2.66664298828125C132.666551953125,2.66664298828125,123.333251953125,2.66664298828125,123.333251953125,2.66664298828125C123.333251953125,2.66664298828125,123.333251953125,2.66664298828125,123.333251953125,2.66664298828125ZM121.333251953125,3.33331298828125C121.333251953125,2.22874598828125,122.228684953125,1.33331298828125,123.333251953125,1.33331298828125C123.333251953125,1.33331298828125,132.666551953125,1.33331298828125,132.666551953125,1.33331298828125C133.771151953125,1.33331298828125,134.666551953125,2.22874598828125,134.666551953125,3.33331298828125C134.666551953125,3.33331298828125,134.666551953125,12.66661298828125,134.666551953125,12.66661298828125C134.666551953125,13.77121298828125,133.771151953125,14.66661298828125,132.666551953125,14.66661298828125C132.666551953125,14.66661298828125,123.333251953125,14.66661298828125,123.333251953125,14.66661298828125C122.228684953125,14.66661298828125,121.333251953125,13.77121298828125,121.333251953125,12.66661298828125C121.333251953125,12.66661298828125,121.333251953125,3.33331298828125,121.333251953125,3.33331298828125C121.333251953125,3.33331298828125,121.333251953125,3.33331298828125,121.333251953125,3.33331298828125ZM128.666581953125,8.66664298828125Q130.666581953125,8.66664298828125,130.666581953125,8.66664298828125C131.034781953125,8.66664298828125,131.333251953125,8.36818298828125,131.333251953125,7.99998298828125C131.333251953125,7.63178298828125,131.034781953125,7.33331298828125,130.666581953125,7.33331298828125Q130.666581953125,7.33331298828125,128.666581953125,7.33331298828125L127.333251953125,7.33331298828125Q125.333251953125,7.33331298828125,125.333251953125,7.33331298828125C124.965061953125,7.33331298828125,124.666581953125,7.63178298828125,124.666581953125,7.99998298828125C124.666581953125,8.36818298828125,124.965061953125,8.66664298828125,125.333251953125,8.66664298828125Q125.333251953125,8.66664298828125,127.333251953125,8.66664298828125L128.666581953125,8.66664298828125Z" fill-rule="evenodd" fill="#CB2634" fill-opacity="1"/></g></g></g></svg>