<svg xmlns="http://www.w3.org/2000/svg" xmlns:xlink="http://www.w3.org/1999/xlink" fill="none" version="1.1" width="16" height="16" viewBox="0 0 16 16"><defs><clipPath id="master_svg0_3466_085070"><rect x="0" y="0" width="16" height="16" rx="0"/></clipPath></defs><g clip-path="url(#master_svg0_3466_085070)"><g><path d="M8,1C9.97933,1.052,11.6278,1.7368329999999998,12.9455,3.0545C14.2632,4.372170000000001,14.948,6.02067,15,8C14.948,9.97933,14.2632,11.6278,12.9455,12.9455C11.6278,14.2632,9.97933,14.948,8,15C6.02067,14.948,4.372170000000001,14.2632,3.0545,12.9455C1.7368329999999998,11.6278,1.052,9.97933,1,8C1.052,6.02067,1.7368329999999998,4.372170000000001,3.0545,3.0545C4.372170000000001,1.7368329999999998,6.02067,1.052,8,1C8,1,8,1,8,1C8,1,8,1,8,1ZM8,4C7.729,4,7.505,4.099,7.328,4.297000000000001C7.151,4.495,7.07283,4.72933,7.0935,5C7.0935,5,7.453,9,7.453,9C7.474,9.146,7.53383,9.26317,7.6325,9.3515C7.73117,9.43983,7.8535,9.48417,7.9995,9.4845C8.1455,9.48483,8.26783,9.4405,8.3665,9.3515C8.46517,9.2625,8.525,9.14533,8.546,9C8.546,9,8.9055,5,8.9055,5C8.9265,4.729,8.84833,4.49467,8.671,4.297000000000001C8.49367,4.09933,8.26967,4.00033,7.999,4C7.999,4,8,4,8,4C8,4,8,4,8,4ZM8,12C8.229330000000001,11.9897,8.4195,11.9115,8.5705,11.7655C8.721499999999999,11.6195,8.797,11.432,8.797,11.203C8.797,10.974,8.721499999999999,10.78383,8.5705,10.6325C8.4195,10.48117,8.229330000000001,10.40567,8,10.406C7.77067,10.40633,7.5805,10.48183,7.4295,10.6325C7.2785,10.78317,7.203,10.97333,7.203,11.203C7.203,11.4327,7.2785,11.6202,7.4295,11.7655C7.5805,11.9108,7.77067,11.989,8,12C8,12,8,12,8,12C8,12,8,12,8,12Z" fill="#E6A23C" fill-opacity="1"/></g></g></svg>